<svg xmlns="http://www.w3.org/2000/svg" viewBox="0 0 344.03 294.02">
  <defs>
    <style>
      .cls-1 {
        font-size: 48px;
        font-family: Arial-Black, Arial Black;
        font-weight: 800;
      }
    </style>
  </defs>
  <title>Asset 1</title>
  <g id="Layer_2" data-name="Layer 2">
    <g id="Layer_1-2" data-name="Layer 1">
      <g>
        <path d="M156,149.42c-1,12.28-1.69,24.43-3.24,36.46-.67,5.16-3.2,10.08-4.94,15.24,20.25,2.6,40,11.21,60.49,17,14,4,28.52,6.47,43,8.49a72.9,72.9,0,0,0,35.38-4.15c2.59-.95,5.68-.55,8.54-.76l.55,2.15a49.38,49.38,0,0,1-5,3.29c-13.24,6.72-27.4,7.6-41.88,6.42-20.9-1.71-40.74-7.69-60.47-14.45-13.29-4.55-27-7.83-41.47-11.93,0,4.85.3,8.48-.11,12-.25,2.09-1.19,5.32-2.58,5.8-3.16,1.09-7.38-2.41-7.17-5.78.35-5.45,1.51-10.84,2.15-16.28a23.83,23.83,0,0,0-.37-5c-.44-4.54-1.92-9.24-1.18-13.56,2.31-13.57,5.45-27,8.3-40.63l-21-11.51c1.19,11.52,2.24,22.25,3.41,33,.75,6.78,2.34,13.55,2.27,20.31-.06,5-2.18,10-3.73,16.47,2.29,4.11,5,10.29,3.34,17.21-.58,2.39-2.36,5.66-4.3,6.27-3.31,1-9.35-3.43-9.15-6.66.37-6.2,1.82-12.34,3-19.44-4-3.72-5.21-9.61-4.86-16.28.89-17.13,1.4-34.29,2.22-51.42.15-3-.65-4.9-3.39-6.38-8.72-4.73-17.32-9.69-26-14.55l-1.09.91c2.18,8.47,4.23,17,6.55,25.4,4.46,16.18,9.1,32.31,13.58,48.49.61,2.21,1.67,4.92.94,6.79-3.3,8.49.68,16.52.91,24.75,0,.5.28,1.05.13,1.48-.89,2.71-1.32,5.82-3,7.92-1.17,1.45-9.17-3.09-9.32-5.7-.35-6.38,0-12.8.1-19.21,0-.62.67-1.56.44-1.82-6-6.52-4.89-14.94-6-22.71-3-21.75-5.87-43.52-8.93-65.27-.21-1.5-1.37-3.6-2.62-4.12C65.63,101.88,51.45,97.3,36.08,98c-18,.78-31.52,13.05-33.56,30.92-.95,8.34,2.54,15.33,8.18,21.19,3,3.09,6.49,5.68,9.4,8.19-14.78-5.81-24-22.44-18.52-38.07,6.43-18.48,22.55-29,43-26.48,12,1.49,23.73,4.56,36.2,7C79.15,94.21,77.47,87,75.53,79.87a4.22,4.22,0,0,0-2.61-2.62C58.36,74.56,53.1,64,50.55,51.14c-2.07-10.45-2.43-20.85,1.46-31C57.25,6.45,68.37,4.05,78.14,15c11.4,12.74,15.18,28.24,13.68,45-.52,5.86-3.95,10.65-8.89,13.9-2.83,1.86-3.63,4-3,7.11,1.46,6.82,2.67,13.7,4.29,20.48a6.2,6.2,0,0,0,3.1,3.41c9.79,4.95,19.66,9.71,30,14.79.11-2.09.37-4.3.34-6.51-.17-13.32-.42-26.64-.63-40C117,68,115.23,64,110,61.8c-4.28-1.75-6-5.23-5.92-10,.17-16.49.07-33,.07-49.46l2.24-.08,3.72,40.28,1.39,0V.69l1.37,0,4,41.6,1.54,0V2.36l1.29,0,3.81,40,1.18,0V.07L125.92,0c1,8.41,2,16.82,2.93,25.24s1.35,16.6,2.5,24.84c.76,5.45-1.23,9.17-5.76,11.57-3.74,2-5.13,4.74-4.84,8.88,1.18,17.27,2.18,34.56,3.41,51.83a5.15,5.15,0,0,0,2.45,3.29c6.47,3.72,13.06,7.24,20.47,11.3,1.42-7.77,3-14.83,4-22,3.45-24.55,6.63-49.13,10.08-73.67,1.5-10.7,3.31-21.36,5.21-32,.28-1.57,1.72-4,2.8-4.1,1.57-.15,4.29,1.07,4.8,2.38,2,5.2,4.45,10.59,4.78,16,1.55,26-2,50.9-13.77,74.68-4,8-4.11,18-5.84,27.14-.65,3.43-.37,7.08-1.35,10.38-1.41,4.74.47,6.61,4.6,8.48,25.69,11.65,51.93,21.55,80.06,25.35,24.21,3.27,47.88,2.09,68.24-13.32,20.06-15.19,29.66-35.76,26.31-61-2-15.11-17.51-26.76-33.9-27.23-14.77-.43-27.47,9.71-31.33,25-3.46,13.7,5.24,25.46,19.87,25.84,5.7.15,11.45-1.67,15.86-2.39-6.21,5.7-19.32,6.49-28.92.73-9.25-5.56-12.79-14.68-10-25.91C275,64.83,304.24,55,327.76,71.61c13.42,9.46,17.87,23,15.78,38.57-5.15,38.24-31,62.83-69.34,67.08-27,3-52.66-3-77.79-11.8C183,160.74,169.89,155,156,149.42Z"/>
        <text class="cls-1"><tspan x="61.06" y="279.3">CRISPY’S</tspan></text>
      </g>
    </g>
  </g>
</svg>
