<svg xmlns="http://www.w3.org/2000/svg" viewBox="0 0 305.4 409.23">
  <defs>
    <style>
      .cls-1 {
        font-size: 60px;
        font-family: MyriadPro-Regular, Myriad Pro;
      }
    </style>
  </defs>
  <title>Asset 4</title>
  <g id="Layer_2" data-name="Layer 2">
    <g id="Layer_1-2" data-name="Layer 1">
      <g>
        <g>
          <path d="M231.69,0c.1,5.64-2.58,9-6.3,12.24-27.23,23.89-53.2,49-74.67,78.38-12.41,17-21.8,35.45-26.79,56-6.93,28.46.89,52.7,22.7,71.72,24.52,21.38,52.84,29.05,84.58,18.93,12-3.82,21.69-11.63,30.28-20.64,5.63-5.9,10.59-12.43,16.19-18.35,2.42-2.57,5.7-4.33,9.64-7.23-4.91,39-48.71,89.07-120.81,68.39l-37.78,74.83c-2.2-2-4.26-3.68-6.1-5.57-5.94-6.07-6.5-11.43-2.54-19,8.55-16.39,16.85-32.9,25.5-49.23,2.31-4.35,1.27-6.71-2.28-9.91-10.14-9.13-20.68-18.06-29.37-28.47-25.82-30.94-29.32-72-10.19-107.53,13.27-24.64,32-44.86,53.81-61.79C181.09,34.5,205.87,17.86,230.11.53A6.73,6.73,0,0,1,231.69,0Z"/>
          <path d="M133.54,144.09c2.09,4.73,3.7,8.7,5.56,12.55,13,27,36.79,36.45,64.85,25.74,19.11-7.29,33.74-20.71,46.43-36.11,30.77-37.31,41.07-80.58,36.09-128.1-.57-5.45-3.22-11.14,1.46-16.85.73,1.82,1.46,3.38,2,5,13.18,39.83,13.22,80.21,4.62,120.85-4.65,22-12.14,43-24.64,61.82-14.09,21.26-32.79,36.49-58.56,40.68-47.24,7.68-88.92-28.8-79.12-80.6C132.49,147.69,132.94,146.34,133.54,144.09Zm43,63.95a2.84,2.84,0,0,0,.86.73,32.64,32.64,0,0,0,4.26,1.4c24.9,5.63,47.43,1.52,66.11-16.85s28.15-42,34.67-66.85a18.52,18.52,0,0,0-2.39,4.58c-5.61,14.14-12.26,27.73-21.37,40C244.88,189.6,227,201.94,204,205.76,194.93,207.27,185.64,207.32,176.52,208Z"/>
          <path d="M159.48,99.86c-1.23,7.94-2.66,15.75-3.55,23.63a45.07,45.07,0,0,0,.36,11.42c2.11,14.51,8.38,19.94,26,21.75-2.48,2-4,3.63-5.78,4.56-10.81,5.53-25.13.15-29.14-11.57a44.64,44.64,0,0,1-2-16.6C146,121,152.49,106.86,159.48,99.86Z"/>
        </g>
        <text class="cls-1" transform="translate(159 322.23)">VINES</text>
        <text class="cls-1" transform="translate(0 322.23)">FIVE</text>
      </g>
    </g>
  </g>
</svg>
